<?xml version="1.0" standalone="no"?>
<!DOCTYPE svg PUBLIC "-//W3C//DTD SVG 20010904//EN"
 "http://www.w3.org/TR/2001/REC-SVG-20010904/DTD/svg10.dtd">
<svg version="1.0" xmlns="http://www.w3.org/2000/svg"
 width="226.000000pt" height="226.000000pt" viewBox="0 0 226.000000 226.000000"
 preserveAspectRatio="xMidYMid meet">
<metadata>
Created by potrace 1.11, written by Peter Selinger 2001-2013
</metadata>
<g transform="translate(0.000000,226.000000) scale(0.100000,-0.100000)"
fill="#000000" stroke="none">
<path d="M918 1598 c-12 -12 -33 -23 -46 -24 -43 -5 -57 -28 -58 -102 -1 -37
-2 -70 -3 -74 0 -5 -12 -8 -26 -8 -45 0 -57 -35 -53 -159 3 -122 15 -148 78
-185 41 -24 211 -30 280 -10 38 11 52 11 84 0 45 -16 226 -14 266 2 28 11 61
45 80 81 7 14 11 63 11 129 -1 116 -13 143 -62 146 -22 1 -23 4 -21 67 2 75
-19 117 -60 115 -12 0 -32 9 -45 22 -28 28 -67 28 -87 0 -8 -11 -27 -22 -42
-24 -28 -3 -64 -30 -61 -46 1 -6 -8 -12 -20 -14 -15 -3 -23 1 -23 10 0 19 -50
58 -69 54 -9 -2 -24 7 -34 19 -23 29 -61 29 -89 1z m64 -149 c1 -114 10 -148
33 -129 7 6 11 40 10 99 -2 97 4 117 29 108 13 -5 15 -33 15 -198 0 -160 3
-195 16 -216 9 -14 15 -27 12 -29 -13 -13 -72 -20 -153 -18 -144 3 -174 35
-174 189 0 68 3 87 15 92 22 8 27 -1 29 -49 2 -52 13 -75 30 -58 7 7 11 59 12
145 0 74 3 138 7 141 3 4 13 4 22 1 12 -5 15 -25 15 -105 0 -103 3 -114 26
-105 11 4 14 32 14 128 0 90 3 125 13 128 24 9 29 -12 29 -124z m338 2 c0
-120 9 -156 32 -133 8 8 12 46 13 110 0 90 1 97 20 97 19 0 20 -7 21 -138 0
-79 5 -142 11 -148 16 -16 31 11 35 61 2 32 7 45 18 45 12 0 15 -19 17 -101 1
-97 0 -103 -25 -133 -15 -17 -40 -35 -57 -39 -36 -9 -179 -8 -218 2 -27 6 -27
6 -11 39 14 26 17 66 18 219 1 103 4 190 8 194 4 3 13 4 21 1 11 -4 14 -28 14
-102 0 -61 4 -100 12 -108 22 -22 31 15 31 134 0 64 3 118 6 122 3 3 12 3 20
0 11 -4 14 -31 14 -122z m-169 -13 c3 -119 -1 -281 -7 -300 -6 -21 -7 -21 -20
-3 -10 14 -14 58 -14 170 0 84 3 155 7 158 17 17 33 5 34 -25z"/>
<path d="M1713 953 c-18 -7 -16 -48 2 -63 23 -19 55 -3 55 30 0 33 -23 47 -57
33z"/>
<path d="M1540 885 c0 -28 -4 -35 -20 -35 -11 0 -20 -5 -20 -10 0 -7 -8 -6
-22 2 -55 30 -137 8 -164 -44 -45 -87 31 -182 131 -164 43 8 52 22 30 46 -12
13 -25 18 -40 14 -54 -13 -89 51 -49 90 17 18 20 18 49 7 14 -6 25 -2 38 13
13 15 20 17 23 9 3 -7 14 -13 25 -13 16 0 19 -7 19 -55 0 -73 15 -103 56 -111
50 -9 69 -2 72 28 3 23 -1 27 -25 30 -26 3 -28 6 -31 56 l-3 52 30 0 c26 0 31
4 31 25 0 25 -8 29 -42 26 -14 -2 -18 5 -18 31 0 32 -2 34 -35 36 -34 3 -35 1
-35 -33z"/>
<path d="M85 852 c-107 -37 -113 -178 -10 -212 38 -13 100 -6 111 11 11 18
-27 49 -51 43 -35 -9 -65 12 -65 44 0 43 15 56 57 55 30 -1 42 3 52 19 7 11 9
24 4 28 -12 12 -75 20 -98 12z"/>
<path d="M242 852 c-22 -3 -23 -6 -20 -110 l3 -107 30 0 c30 1 30 1 33 67 3
76 15 91 75 97 4 1 7 15 7 31 0 23 -4 30 -20 30 -11 0 -29 -9 -40 -20 -14 -14
-20 -16 -20 -6 0 17 -17 23 -48 18z"/>
<path d="M463 849 c-42 -12 -73 -57 -73 -106 0 -91 98 -142 178 -93 l33 21
-22 18 c-21 17 -25 17 -47 3 -18 -12 -28 -12 -47 -4 -26 12 -34 31 -12 33 6 0
39 2 72 2 58 2 60 3 61 29 1 37 -30 86 -62 98 -29 12 -38 11 -81 -1z m65 -51
c21 -21 13 -28 -28 -28 -22 0 -40 4 -40 8 0 14 23 32 40 32 9 0 21 -5 28 -12z"/>
<path d="M710 853 c-13 -3 -32 -11 -42 -17 -17 -12 -17 -14 1 -30 16 -14 23
-15 39 -5 23 14 72 4 72 -15 0 -8 -12 -13 -30 -14 -68 -2 -110 -30 -110 -73 0
-57 63 -85 122 -55 19 10 25 11 22 2 -5 -14 47 -16 57 -3 13 18 3 155 -13 179
-14 21 -63 42 -87 37 -3 -1 -17 -4 -31 -6z m70 -142 c0 -10 -7 -22 -16 -25
-44 -17 -82 6 -49 31 28 20 65 17 65 -6z"/>
<path d="M905 851 c-18 -8 -20 -17 -18 -87 3 -143 0 -132 33 -130 17 0 30 3
31 6 0 3 2 34 3 69 3 71 21 96 64 88 21 -4 23 -1 20 27 -4 37 -30 46 -58 21
-18 -16 -20 -16 -35 -1 -9 9 -17 16 -18 15 -1 0 -11 -4 -22 -8z"/>
<path d="M1125 853 c-11 -3 -28 -11 -38 -18 -16 -11 -16 -13 2 -29 16 -14 23
-15 39 -5 22 14 72 5 72 -14 0 -8 -16 -14 -42 -15 -58 -3 -92 -30 -96 -74 -4
-45 33 -73 82 -64 41 9 56 9 83 3 37 -9 42 10 34 149 -3 50 -73 84 -136 67z
m75 -142 c0 -10 -7 -22 -16 -25 -44 -17 -82 6 -49 31 28 20 65 17 65 -6z"/>
<path d="M1712 852 c-8 -2 -12 -36 -12 -111 l0 -108 28 3 c15 1 30 2 35 3 4 1
7 48 7 105 0 100 -1 104 -23 108 -12 2 -28 3 -35 0z"/>
<path d="M1996 851 c-24 -5 -31 -14 -49 -68 -12 -35 -24 -63 -27 -63 -4 0 -17
29 -29 65 -22 63 -24 65 -57 65 -19 0 -34 -3 -34 -7 0 -11 72 -186 82 -199 5
-7 23 -11 40 -10 29 1 34 7 55 61 13 33 27 69 32 80 35 83 35 85 -13 76z"/>
<path d="M2113 849 c-39 -12 -50 -27 -31 -45 11 -11 19 -12 46 -2 23 9 37 10
49 2 30 -19 24 -30 -18 -33 -85 -5 -129 -55 -94 -107 19 -30 55 -39 96 -25 18
6 37 7 43 3 6 -5 20 -8 31 -8 17 1 20 9 23 61 4 69 -3 113 -22 137 -16 21 -80
30 -123 17z m87 -132 c0 -21 -22 -37 -52 -37 -30 0 -37 17 -16 38 16 16 68 15
68 -1z"/>
</g>
</svg>
